<svg version="1.1" id="Layer_1" xmlns="http://www.w3.org/2000/svg" xmlns:xlink="http://www.w3.org/1999/xlink" x="0px" y="0px" viewBox="0 0 1232.2 143.7" style="enable-background:new 0 0 1232.2 143.7;" xml:space="preserve">

<defs>  
<clipPath id="path-bcc">  
  <path class="st0" d="M296.8,39c-2.1,0.8-4.4,1.2-6.9,1.2c-1.4,0-3.2-0.3-5.1-0.8c-6,10.7-28.3,48.4-39.7,67.9
    c-0.4,0.1-0.7,0.5-0.9,0.9c-14.6,20.6-24.6,30.9-30,30.9c-2.5,0-3.7-1.5-3.7-4.4c0-2.6,2.3-7.8,6.8-15.8s20.4-34.6,47.6-79.9
    c-2.1,0.8-4.4,1.2-6.9,1.2c-1.4,0-3.2-0.3-5.1-0.8c-8,14.3-17.9,31.2-29.6,50.7c-4.1,6.8-7.5,12.5-10.1,17c-0.4,0-0.7,0.4-1,1
    c-14.6,20.6-24.7,30.9-30.5,30.9c-3.1,0-4.6-1.5-4.6-4.4c0-2.8,1.6-6.9,4.8-12.1L204,86.3c-3.2,0.5-5.7,0.7-7.4,0.7
    c-1.2,0-2.8-0.2-4.8-0.7L176.6,112c-4.5,7.6-6.7,13.3-6.7,17.1c0,3.2,1.1,5.9,3.1,8.1c2,2.2,4.6,3.3,7.6,3.3
    c6.4,0,15.7-8.5,27.9-25.4l0.2-0.2c-1,1.8-1.8,3.2-2.3,4.1c-1.7,3.3-2.5,6.7-2.5,10.3c0,3.2,0.9,5.9,2.7,8c1.8,2.1,4.1,3.2,6.9,3.2
    c5.7,0,14.6-8.4,26.8-24.9c-1.1,1.8-1.8,3.1-2,3.4c-1.7,3.3-2.5,6.7-2.5,10.3c0,3.2,0.9,5.9,2.7,8c1.8,2.1,4.1,3.2,6.9,3.2
    c5.8,0,14.8-8.5,27.1-25.4l4.2-5.7c0.7-0.7,1-1.2,1-1.6c0-0.3-0.1-0.5-0.4-0.6c-0.5,0-0.9,0.4-1.2,1c-14.6,20.6-24.6,30.9-30,30.9
    c-2.5,0-3.7-1.5-3.7-4.4c0-2.6,2.3-7.8,6.8-15.8S269.6,84.3,296.8,39z"/>
  <path class="st0" d="M141.6,70.5c19.6-2.7,29.4-11.3,29.4-25.7c0-9-4.5-16.9-13.6-23.6c11.4-7.1,22.4-10.6,33.1-10.6   c8,0,14.4,2.4,19.3,7.4c4.9,5,7.3,11.5,7.3,19.7c0,5.3-0.9,10.2-2.6,14.7c-0.1,0.4-0.2,0.7-0.2,0.9c0,0.7,0.4,1,1,1   c0.8,0,1.7-2,2.6-6c0.9-4,1.3-7.7,1.3-11.1c0-8.4-2.6-15.3-8-20.9c-5.2-5.2-12.2-7.8-20.9-7.8c-11.1,0-22.5,3.7-34.4,11.1   c-13.1-8.5-29.1-12.7-48-12.7c-25,0-47.9,7.6-68.6,22.7c-20.7,15.1-31,31.9-31,50.2c0,9.1,2.7,16.3,8.1,21.7   c5.4,5.4,12.6,8.1,21.6,8.1c13.8,0,27.8-6.4,42-19.2c14.2-12.8,21.3-25.5,21.3-38.1c0-10.3-5.6-15.4-16.7-15.4   c-11.7,0-23,4.8-34.1,14.3c-11.1,9.6-16.6,19.4-16.6,29.4c0,4,1.1,7.5,3.2,10.3c2.2,2.8,4.8,4.2,7.9,4.2c1.2,0,1.8-0.3,1.8-0.9   c0-0.3-0.6-0.6-1.7-0.8c-2,0-3.9-0.8-5.4-2.5s-2.3-3.7-2.3-6c0-9.4,5.6-19.5,16.6-30.2s21.3-16.1,31-16.1s14.5,4.7,14.5,14.1   c0,11.8-6.9,23.9-20.8,36.4c-13.9,12.5-27.4,18.8-40.4,18.8c-7.9,0-14.2-2.1-18.9-6.4s-7-10-7-17.3c0-14.3,8.3-29.6,24.9-45.8   c20.2-19.7,44-29.6,71.3-29.6c19.4,0,34.3,4.3,44.5,12.9c-6,4.2-13.6,11.3-22.6,21.3c-9,9.9-16.7,19.7-23.1,29.4   C94.1,92.7,85.7,105.2,82,110.2c-3.7,4.9-8,9.7-13,14.2c-11.6,10.5-24.4,15.7-38.6,15.7c-8.1,0-14.7-1.7-20-5.3   c-5.3-3.6-7.9-8-7.9-13.4c0-3.4,0.6-5.1,1.6-5.1c0.3,0,0.5,0.7,0.4,2.1c-0.1,3.5,1.5,5.2,4.9,5.2c1.9,0,3.6-0.7,4.9-2.3   c1.3-1.5,2-3.4,2-5.6c0-4.4-1.9-6.6-5.9-6.6c-2.7,0-5,1.2-7,3.6c-2,2.4-3,5.3-3,8.6c0,5.9,2.8,10.9,8.6,14.9s13,6,21.7,6   c10.6,0,22.7-3.3,36.2-9.9c11.4-5.7,20.3-12,26.5-18.9c6.4-7.2,13.5-18.8,21.2-34.8c12.5-26.1,25.8-44.5,40-55.4   c5,5.3,7.5,11.1,7.5,17.6c0,6.8-2,12.7-5.9,17.9c-3.9,5.2-9.3,8.8-16,10.9c-4.8-1.1-8.7-1.7-11.6-1.7c-4.1,0-6.1,0.5-6.1,1.7   c0,1.6,2.5,2.4,7.4,2.4c1.6,0,3.1-0.1,4.7-0.3l5.6-0.7c10.3,5,15.5,12.9,15.5,23.7c0,11.5-4.2,22.1-12.4,31.7   c-8.2,9.6-17.3,14.4-27.2,14.4c-4.4,0-8-1.5-10.9-4.3c-2.9-2.9-4.4-6.4-4.4-10.7c0-8,3.5-15.9,10.5-23.6s14.1-11.6,21.4-11.6   c3.9,0,7,1.1,9.4,3.4c2.4,2.2,3.6,5.2,3.6,8.9c0,3.9-1.7,8.4-5.1,13.3c-0.3,0.6-0.4,0.9-0.4,1.2c0,0.5,0.4,0.8,1.1,0.8   c1,0,2.2-1.8,3.8-5.6c1.5-3.7,2.3-6.9,2.3-9.4c0-4.2-1.4-7.6-4.1-10.3s-6.2-4-10.5-4c-7.7,0-15.4,4.1-23,12.2   c-7.6,8.1-11.4,16.3-11.4,24.6c0,5.4,1.8,9.7,5.4,12.8c3.6,3.1,8.4,4.7,14.5,4.7c12.7,0,23.8-4.1,33.3-12.5   c9.5-8.3,14.2-18.1,14.2-29.2C165.8,86.5,157.7,76.1,141.6,70.5z"/>
  <path class="st0" d="M201.7,66.5c-2,2-3,4.1-3,6.2c0,2.9,1.5,4.4,4.4,4.4c2.3,0,4.4-1,6.3-3c1.9-2,2.9-4.1,2.9-6.4
    c0-2.8-1.4-4.2-4.3-4.2C205.8,63.5,203.7,64.5,201.7,66.5z"/>
  <path class="st0" d="M1117.7,77.1c2.3,0,4.4-1,6.3-3s2.9-4.1,2.9-6.4c0-2.8-1.4-4.2-4.3-4.2c-2.2,0-4.3,1-6.3,3s-3,4.1-3,6.2
    C1113.3,75.6,1114.8,77.1,1117.7,77.1z"/>
  <path class="st0" d="M1231.4,107.2c-0.5,0-1.1,0.6-1.9,1.6c-14.8,20-27.4,30-37.6,30c-6,0-9-2.8-9-8.4c0-4.5,2.2-10,6.6-16.7
    c14.2-2.9,24.4-5.9,30.5-9.2s9.1-7.2,9.1-11.9c0-2-0.8-3.7-2.5-5.1c-1.7-1.4-3.7-2.1-6-2.1c-5.4,0-12.3,2.3-20.9,7
    c-10.5,5.7-17.6,12-21.3,18.9c-6.5,7.8-12.1,11.6-16.7,11.6c-2.8,0-4.9-1.5-6.3-4.4c10.7-15.1,16.1-25.1,16.1-30
    c0-1.9-0.8-2.8-2.4-2.8c-3.4,0-6.9,3.1-10.5,9.3s-5.4,12.3-5.4,18.2c0,1.4,0.3,3.2,0.9,5.1c-6.2,8.1-11,13.6-14.3,16.5
    c-3.4,2.9-6.6,4.4-9.8,4.4c-3.4,0-5.1-1.6-5.1-4.6c0-2.9,2.2-8,6.7-15.4l20.3-32.8c-1.4,0.3-3.3,0.5-5.7,0.5
    c-1.1,0-3.2-0.2-6.4-0.5l-12.7,21.2c-0.1,0.1-0.2,0.3-0.3,0.4l-0.1,0.1c-14.6,20.6-24.7,30.9-30.5,30.9c-3.1,0-4.6-1.5-4.6-4.4
    c0-2.8,1.6-6.9,4.8-12.1l22.1-36.2c-3.2,0.5-5.7,0.7-7.4,0.7c-1.2,0-2.8-0.2-4.8-0.7l-12.6,21.4c-0.1,0.2-0.3,0.3-0.5,0.5
    c-14,20.6-24,30.9-29.9,30.9c-3.1,0-4.6-1.5-4.6-4.4c0-2.7,1.3-6.2,4-10.7l21.7-37h12.7l0.8-1.5v-0.1h-12.8l11.2-18.9
    c-1.9,0.5-3.8,0.8-5.6,0.8c-1.7,0-3.6-0.3-5.5-0.8l-11.4,18.9h-9.7l-1,1.5h9.9l-13.9,23.4c-5.5,7.8-10.8,14.6-16.1,20
    c-5.8,5.9-9.9,8.9-12.5,8.9c-2.5,0-3.8-1.6-3.8-4.6c0-3.1,2.9-9.7,8.9-19.7l17.2-28.5c-2.8,0.5-5.1,0.7-6.8,0.7
    c-1.5,0-3.3-0.2-5.2-0.7l-5,9.4c0.5-1.8,0.8-3.3,0.8-4.4c0-3.9-2-5.8-6-5.8c-4.8,0-11,2.1-18.7,6.4c-10.3,5.7-17.6,11.8-21.9,18.5
    c-14.3,18.9-26.4,28.3-36.3,28.3c-6,0-9-2.8-9-8.4c0-4.5,2.2-10,6.6-16.7c14.2-2.9,24.4-5.9,30.5-9.2s9.1-7.2,9.1-11.9
    c0-2-0.8-3.7-2.5-5.1c-1.7-1.4-3.7-2.1-6-2.1c-5.4,0-12.3,2.3-20.9,7c-10.7,5.9-17.9,12.3-21.5,19.3c-5.3,6.9-10.3,10.3-14.9,10.3
    c-4.1,0-6.1-2.8-6.1-8.2c0-2,0.5-4.4,1.4-7.4l1.2-1c2.8-1.8,5-3.1,6.4-4c9-5.8,13.5-10.2,13.5-13.3c0-1.7-1-2.6-3-2.6
    c-3,0-6.2,1.9-9.9,5.8c-3.7,3.9-6.7,8.7-9.2,14.5c-3,2.4-6.2,5.6-9.6,9.5c5.3-8.2,8-14.8,8-19.8c0-6.7-2.6-10-7.8-10
    c-3.5,0-10.3,6.7-20.3,20l-1.8,2.4c-0.2,0.2-0.3,0.5-0.4,0.8c0,0.3,0.1,0.5,0.4,0.6c0.5,0,1-0.5,1.6-1.4
    C899.2,94,905.8,87,909.4,87c1.5,0,2.2,0.9,2.2,2.7c0,3.1-4,11.1-12,24.1l-15.9,25.8c3.7-0.3,5.6-0.4,5.9-0.4c0.6,0,2.6,0.1,6,0.4
    c6.3-10.8,10.7-17.9,13.3-21.4s5.9-7,10-10.6c-0.8,2.8-1.2,5.1-1.2,6.9c0,5.8,2.5,8.6,7.4,8.6c4.1,0,8.7-2.5,13.4-7.6
    c-0.8,2.5-1.3,5.1-1.3,7.7c0,4.9,1.5,9,4.6,12.3s6.9,4.9,11.4,4.9c9.5,0,20.9-8.1,34.1-24.3c-1.1,2.9-1.6,5.9-1.6,8.9
    c0,4.4,1.2,8.2,3.5,11.1c2.3,2.9,5.2,4.4,8.6,4.4c3.2,0,6.6-1.6,10-4.8c3.5-3.2,8.4-9.3,14.9-18.4c-2.1,4.1-3.1,7.9-3.1,11.4
    c0,3.4,0.9,6.2,2.8,8.4c1.9,2.3,4.3,3.4,7.3,3.4c4.4,0,10.4-4.6,18.1-13.8c2.6-3.1,4.9-5.8,6.7-8.1c-1.9,4-2.8,7.4-2.8,10.3
    c0,3.3,1.1,6.1,3.1,8.3s4.6,3.3,7.6,3.3c5.8,0,14.5-7.8,25.9-23.2c-2.5,5-3.8,8.9-3.8,11.8c0,3.2,1.1,5.9,3.1,8.1
    c2,2.2,4.6,3.3,7.6,3.3c6.2,0,15-7.9,26.5-23.5c-2.5,4.9-3.8,8.9-3.8,11.8c0,3.2,1.1,6,3.4,8.3c2.3,2.2,5.1,3.4,8.4,3.4
    c3.7,0,7.4-1.5,11-4.6c3.6-3.1,8.3-8.6,14.1-16.6c1.9,3.1,4.2,4.7,7.1,4.7c4.2,0,9.2-3,14.8-8.9c-0.9,2.6-1.4,5.3-1.4,8.1
    c0,4.9,1.5,9,4.6,12.3s6.9,4.9,11.4,4.9c9.6,0,21.1-8.2,34.5-24.8l4.2-5.2c1.2-1.5,1.8-2.3,1.8-2.5
    C1231.8,107.6,1231.6,107.4,1231.4,107.2z M1206.5,93.9c5.6-4.7,10.2-7.1,13.6-7.1c2.3,0,3.4,1,3.4,3.1c0,3.9-3.2,8-9.8,12.3
    c-6.5,4.4-14.4,7.8-23.7,10.2C1195.4,104.8,1200.9,98.7,1206.5,93.9z M968.5,93.9c5.6-4.7,10.2-7.1,13.6-7.1c2.3,0,3.4,1,3.4,3.1
    c0,3.9-3.3,8-9.8,12.3c-6.5,4.4-14.4,7.8-23.7,10.2C957.4,104.8,962.9,98.7,968.5,93.9z M1021.6,116.8
    c-11,14.9-18.7,22.3-23.2,22.3c-3.7,0-5.6-2.1-5.6-6.3c0-7.2,4.8-16.6,14.5-28.3s17.5-17.5,23.5-17.5c2.9,0,4.4,1.6,4.4,4.8
    C1035.2,96.3,1030.7,104.6,1021.6,116.8z"/>
  <path class="st0" d="M447.4,66.8c-9.7,0-19.2,4.6-28.6,13.7c-9.4,9.1-14.1,18.2-14.1,27.5c0,5.2,2.1,7.8,6.4,7.8c4.7,0,7-2.4,7-7.2
    c0-3.5-1.6-5.3-4.9-5.3c-1.5,0-3.1,0.7-4.8,2.3c-0.2,0.2-0.5,0.3-0.8,0.4c-0.4,0-0.6-0.4-0.6-1c0-7.4,4.6-15.4,13.9-23.9
    c9.2-8.5,17.9-12.8,26-12.8c5,0,9.1,1.5,12.1,4.5c3.1,2.9,4.6,6.9,4.6,12c0,9.6-4.4,19.7-13.1,30.4c-14.5,17.7-30.9,26.5-49.4,26.5
    c-9.8,0-17.5-2.7-23.2-8s-8.5-12.6-8.5-21.7c0-13.4,5.1-27.4,15.5-41.8c1.3,0.1,2.9,0.2,4.6,0.2c12.5,0,26.8-2.5,43-7.6
    c16.1-5.1,28.9-11.1,38.3-18.1c4.5,6.6,6.8,13.2,6.8,19.7c0,2.1,0.4,3.2,1.2,3.2c1,0,1.5-0.8,1.5-2.4c0-6.6-2.7-13.9-8-21.7
    c5.8-4.5,8.7-8.9,8.7-13.1c0-6.3-6.5-9.5-19-9.5c-4.1,0-8,0.4-11.8,1.2C428,7.6,406.1,0.4,384.4,0.4c-15.6,0-28.6,3.4-39,10.2
    C335,17.4,329.8,25.9,329.8,36c0,16.9,14.1,28,42.1,33.2c-7.7,11.6-11.6,22.9-11.6,33.9c0,11.4,3.9,20.9,11.7,28.6
    c7.8,7.7,17.4,11.6,28.9,11.6c16.4,0,31.4-5.8,44.9-17.4c13.5-11.6,20.3-24.5,20.3-38.6C466.1,73.6,459.8,66.8,447.4,66.8z
     M463.9,22.4c10.3,0,15.5,2.7,15.5,8c0,3.5-2.6,7.5-8,12c-5-7.1-11.4-13.3-19.1-18.6C456.8,22.9,460.7,22.4,463.9,22.4z M470,43.4
    c-9.6,7-22.6,13-39.1,18.1c-16.4,4.9-31.4,7.4-44.9,7.4c7.4-10.3,16.9-19.4,28.4-27.5c11.6-8.1,23.4-13.8,35.5-17.1
    C458.3,29.8,465,36.2,470,43.4z M332.9,37.8c0-8.6,5.1-16.2,15.4-22.7s22.3-9.7,36-9.7c22.3,0,43.2,5.7,62.9,17.1
    c-33.6,7.5-58.5,22.6-74.8,45.3C346,63.3,332.9,53.3,332.9,37.8z"/>
  <path class="st0" d="M693.4,108.8c-14.8,20-27.4,30-37.6,30c-6,0-9-2.8-9-8.4c0-4.5,2.2-10,6.6-16.7c14.2-2.9,24.4-5.9,30.5-9.2
    s9.1-7.2,9.1-11.9c0-2-0.8-3.7-2.5-5.1c-1.7-1.4-3.7-2.1-6-2.1c-5.4,0-12.3,2.3-20.9,7c-11.5,6.3-18.9,13.2-22.3,20.9
    c-12,17.2-20.7,25.8-26.3,25.8c-2.1,0-3.2-0.8-3.2-2.5c0-1,0.6-2.9,2-5.6c3.2-6.5,4.8-10.8,4.8-13.1c0-4.1-3.4-7.7-10.1-10.8
    c3.3-1.4,7.7-5.3,13.1-11.4c4.2-4.9,7.7-7.4,10.5-7.4c2,0,3,0.7,3,2.3c0,2-0.9,3.6-2.6,4.7c-4.2,2.7-6.3,5.2-6.3,7.5
    c0,2.5,1.4,3.8,4.2,3.8c2.4,0,4.9-1.5,7.4-4.6c2.5-3.1,3.7-6.2,3.7-9.3c0-4.7-2.5-7-7.4-7c-4.1,0-8,2.2-11.8,6.6
    c-7.1,8.2-12.3,13-15.5,14.4c-1.7-0.7-3.6-1-5.7-1c-2.1,0-3.2,0.5-3.2,1.6c0,1.3,1.1,1.9,3.4,1.9c1.6,0,3.6-0.6,6.1-1.6
    c2.1,1.2,3.2,2.6,3.2,4c0,1.2-0.6,3-1.8,5.4l-0.1,0.4c-3.6,7.2-5.4,11.8-5.4,13.9c0,2.4,1.1,4.5,3.2,6.4c2.1,1.9,4.6,2.8,7.4,2.8
    c5.9,0,14.6-7.8,26-23.1c-0.5,1.9-0.7,3.8-0.7,5.8c0,4.9,1.5,9,4.6,12.3c3.1,3.3,6.9,4.9,11.4,4.9c9.6,0,21.1-8.2,34.5-24.8
    l4.2-5.2c1.2-1.5,1.8-2.3,1.8-2.5c0-0.3-0.2-0.5-0.4-0.7C694.8,107.2,694.2,107.8,693.4,108.8z M670.5,93.9
    c5.6-4.7,10.2-7.1,13.6-7.1c2.3,0,3.4,1,3.4,3.1c0,3.9-3.3,8-9.8,12.3c-6.5,4.4-14.4,7.8-23.7,10.2
    C659.4,104.8,664.9,98.7,670.5,93.9z"/>
  <path class="st0" d="M865.4,66.8c-9.7,0-19.2,4.6-28.6,13.7c-9.4,9.1-14.1,18.2-14.1,27.5c0,5.2,2.1,7.8,6.4,7.8c4.7,0,7-2.4,7-7.2
    c0-3.5-1.6-5.3-4.9-5.3c-1.5,0-3.1,0.7-4.8,2.3c-0.2,0.2-0.5,0.3-0.8,0.4c-0.4,0-0.6-0.4-0.6-1c0-7.4,4.6-15.4,13.9-23.9
    c9.2-8.5,17.9-12.8,26-12.8c5,0,9.1,1.5,12.1,4.5c3.1,2.9,4.6,6.9,4.6,12c0,9.6-4.4,19.7-13.1,30.4c-14.5,17.7-30.9,26.5-49.4,26.5
    c-9.8,0-17.5-2.7-23.2-8s-8.5-12.6-8.5-21.7c0-13.4,5.1-27.4,15.5-41.8c1.3,0.1,2.9,0.2,4.6,0.2c12.5,0,26.8-2.5,43-7.6
    c16.1-5.1,28.9-11.1,38.3-18.1c4.5,6.6,6.8,13.2,6.8,19.7c0,2.1,0.4,3.2,1.2,3.2c1,0,1.5-0.8,1.5-2.4c0-6.6-2.7-13.9-8-21.7
    c5.8-4.5,8.7-8.9,8.7-13.1c0-6.3-6.4-9.5-19-9.5c-4.1,0-8,0.4-11.8,1.2C846,7.6,824.1,0.4,802.4,0.4c-15.6,0-28.6,3.4-39,10.2
    S747.8,25.9,747.8,36c0,16.9,14.1,28,42.1,33.2c-7.7,11.6-11.6,22.9-11.6,33.9c0,11.4,3.9,20.9,11.7,28.6s17.4,11.6,28.9,11.6
    c16.4,0,31.4-5.8,44.9-17.4c13.5-11.6,20.3-24.5,20.3-38.6C884.1,73.6,877.8,66.8,865.4,66.8z M882,22.4c10.3,0,15.5,2.7,15.5,8
    c0,3.5-2.7,7.5-8,12c-5-7.1-11.4-13.3-19.1-18.6C874.9,22.9,878.8,22.4,882,22.4z M888,43.4c-9.6,7-22.6,13-39.1,18.1
    c-16.4,4.9-31.4,7.4-44.9,7.4c7.4-10.3,16.9-19.4,28.4-27.5c11.6-8.1,23.4-13.8,35.5-17.1C876.3,29.8,883,36.2,888,43.4z
     M750.9,37.8c0-8.6,5.1-16.2,15.4-22.7s22.3-9.7,36-9.7c22.2,0,43.2,5.7,62.9,17.1c-33.6,7.5-58.5,22.6-74.9,45.3
    C764,63.3,750.9,53.3,750.9,37.8z"/>
  <path class="st0" d="M620.9,67.6c3.4-5.5,5.9-9.7,7.5-12.5c3.4-5.3,5.9-9.4,7.6-12.1c1.1-1.8,1.9-3.1,2.4-4
    c-2.9,0.5-4.9,0.8-6.1,0.6c-1.3,0-3.2-0.3-5.9-0.8l-35.7,59.7c-2.1,3.7-3.9,6.8-5.4,9.4c-0.2,0.2-0.4,0.4-0.6,0.7
    c-2.4,3.8-5.6,7.1-9.5,9.8s-7.3,4.1-10.2,4.1c-1.6,0-3.1-0.4-4.4-1.2c7.9-10.5,11.8-19.4,11.8-26.9c0-5.9-2.8-8.9-8.4-8.9
    c-5.9,0-13.5,3.3-22.7,9.8c-5.5,3.9-9.9,7.9-13.1,12c-0.3,0.2-0.8,0.6-1.3,1.3c-2.4,3.8-5.6,7.1-9.5,9.8s-7.3,4.1-10.2,4.1
    c-1.6,0-3.1-0.4-4.4-1.2c7.9-10.5,11.8-19.4,11.8-26.9c0-5.9-2.8-8.9-8.4-8.9c-5.9,0-13.5,3.3-22.7,9.8
    c-13.1,9.3-19.6,18.9-19.6,28.9c0,4.5,1.3,8.3,4.1,11.5s6.1,4.8,10,4.8c7.5,0,15.5-6.1,24.1-18.2c1.5,0.8,3.3,1.2,5.3,1.2
    c4.8,0,10.1-2.8,15.8-8.5c0.3-0.3,0.5-0.5,0.7-0.7c-1.5,3.3-2.2,6.6-2.2,9.9c0,4.5,1.3,8.3,4.1,11.5s6.1,4.8,10,4.8
    c7.5,0,15.5-6.1,24.1-18.2c1.5,0.8,3.3,1.2,5.3,1.2c4.8,0,10.1-2.8,15.8-8.5c0.2-0.2,0.3-0.3,0.5-0.5l-9.7,16.8
    c-1.9,3.2-3.5,6.1-5,8.6c2.8-0.4,4.9-0.6,6.3-0.6c1.6,0,3.4,0.2,5.1,0.6l1.3-1.9c2.7-4.4,6.2-10.7,10.5-18.9
    c3.9-7.3,8.6-15.5,14.2-24.5L620.9,67.6z M498.3,115.2c0,2.2,0.9,4.3,2.8,6.4c-8.3,11.5-15.9,17.3-22.9,17.3
    c-4.3,0-6.4-2.2-6.4-6.7c0-7.7,4.2-17.2,12.7-28.5s15.7-16.9,21.6-16.9c4.7,0,7.1,2.7,7.1,7.9c0,2.8-0.6,5.3-1.6,7.5
    c-0.4-1.3-1.1-1.9-2.1-1.9c-2.4,0-4.9,1.7-7.4,5.1C499.6,108.8,498.3,112,498.3,115.2z M559.8,105.4c-2.5,3.4-3.8,6.6-3.8,9.8
    c0,2.2,0.9,4.3,2.8,6.4c-8.3,11.5-15.9,17.3-22.9,17.3c-4.3,0-6.4-2.2-6.4-6.7c0-7.7,4.2-17.2,12.7-28.5s15.7-16.9,21.6-16.9
    c4.7,0,7.1,2.7,7.1,7.9c0,2.8-0.6,5.3-1.6,7.5c-0.4-1.3-1.1-1.9-2.1-1.9C564.8,100.3,562.3,102,559.8,105.4z"/>
</clipPath>
</defs>
<style type="text/css">
  .b1{fill:none;stroke:#FFF;stroke-width:17;stroke-miterlimit:10;}
  .b2{fill:none;stroke:#FFF;stroke-width:14;stroke-miterlimit:10;}
  .ill{fill:none;stroke:#FFF;stroke-width:14;stroke-miterlimit:10;}
  .co{fill:none;stroke:#FFF;stroke-width:14;stroke-miterlimit:10;}
  .ooke{fill:none;stroke:#FFF;stroke-width:14;stroke-miterlimit:10;}
  .cr{fill:none;stroke:#FFF;stroke-width:14;stroke-miterlimit:10;}
  .reative{fill:none;stroke:#FFF;stroke-width:14;stroke-miterlimit:10;}
  .dot-dash{fill:none;stroke:#FFF;stroke-width:14;stroke-miterlimit:10;}


  .b1 {
    stroke-dasharray: 1200;
    stroke-dashoffset: 1200;
    /*stroke-width: 5;*/
    -webkit-animation: bcc-b 4s linear forwards;
            animation: bcc-b 4s linear forwards;
  }

  .b2 {
    stroke-dasharray: 1200;
    stroke-dashoffset: 1200;
    /*stroke-width: 5;*/
    -webkit-animation: bcc-b 4s linear forwards 1.0s;
            animation: bcc-b 4s linear forwards 1.0s;
  }

  .ill {
    stroke-dasharray: 1200;
    stroke-dashoffset: 1200;
    /*stroke-width: 5;*/
    -webkit-animation: bcc-b 1.25s linear forwards 2.5s;
            animation: bcc-b 1.25s linear forwards 2.5s;
  }

  .co {
    stroke-dasharray: 1200;
    stroke-dashoffset: 1200;
    /*stroke-width: 5;*/
    -webkit-animation: bcc-b 1s linear forwards 3s;
            animation: bcc-b 1s linear forwards 3s;
  }

  .ooke {
    stroke-dasharray: 1200;
    stroke-dashoffset: 1200;
    /*stroke-width: 5;*/
    -webkit-animation: bcc-b 1.5s linear forwards 3.5s;
            animation: bcc-b 1.5s linear forwards 3.5s;
  }

  .cr {
    stroke-dasharray: 1200;
    stroke-dashoffset: 1200;
    /*stroke-width: 5;*/
    -webkit-animation: bcc-b 1s linear forwards 5s;
            animation: bcc-b 1s linear forwards 5s;
  }

  .reative {
    stroke-dasharray: 1900;
    stroke-dashoffset: 1900;
    /*stroke-width: 5;*/
    -webkit-animation: bcc-reative 2.5s linear forwards 5.5s;
            animation: bcc-reative 2.5s linear forwards 5.5s;
  }

  .dot-dash {
    stroke-dasharray: 50;
    stroke-dashoffset: 50;
    /*stroke-width: 5;*/
    -webkit-animation: bcc-dot-dash 1.5s linear forwards 8s;
            animation: bcc-dot-dash 1.5s linear forwards 8s;
  }

  @-webkit-keyframes bcc-b {
    0% {
      stroke-dashoffset: 1200;
    }
    33% {
      /*stroke-width: 5;*/
    }
    90% {
      stroke-dashoffset: 0;
    }
    100% {
      stroke-dashoffset: 0;
      /*stroke-width: 17;*/
    }
  }

  @keyframes bcc-b {
    0% {
      stroke-dashoffset: 1200;
    }
    33% {
      /*stroke-width: 5;*/
    }
    90% {
      stroke-dashoffset: 0;
    }
    100% {
      stroke-dashoffset: 0;
      /*stroke-width: 17;*/
    }
  }

  @-webkit-keyframes bcc-reative {
    0% {
      stroke-dashoffset: 1900;
    }
    33% {
      /*stroke-width: 5;*/
    }
    90% {
      stroke-dashoffset: 0;
    }
    100% {
      stroke-dashoffset: 0;
      /*stroke-width: 17;*/
    }
  }

  @keyframes bcc-reative {
    0% {
      stroke-dashoffset: 1900;
    }
    33% {
      /*stroke-width: 5;*/
    }
    90% {
      stroke-dashoffset: 0;
    }
    100% {
      stroke-dashoffset: 0;
      /*stroke-width: 17;*/
    }
  }

  @-webkit-keyframes bcc-dot-dash {
    0% {
      stroke-dashoffset: 50;
    }
    33% {
      /*stroke-width: 5;*/
    }
    90% {
      stroke-dashoffset: 0;
    }
    100% {
      stroke-dashoffset: 0;
      /*stroke-width: 17;*/
    }
  }

  @keyframes bcc-dot-dash {
    0% {
      stroke-dashoffset: 50;
    }
    33% {
      /*stroke-width: 5;*/
    }
    90% {
      stroke-dashoffset: 0;
    }
    100% {
      stroke-dashoffset: 0;
      /*stroke-width: 17;*/
    }
  }

</style>
<g>

</g>
<path class="b1" clip-path="url(#path-bcc)"  d="M44.6,93.9l-9.7-3.3l-1.3-10.8l1.7-8.2l3.8-7.3l10.1-11.1l7.6-6.1l9.2-5.6l9.6-3.3L86,37.7l7.9,2.9l3.2,5.4l2,6
  l-2.9,11.4l-7.1,13.2L75.3,91.1l-12.6,9.4l-13.6,6l-7.8,1.7h-8.5l-7.2-2.7l-7.5-5.3l-5.8-8.4l-1.9-6.8L9.2,73l2.4-8.5l4.2-8.9
  l8.2-10.1l6.6-7.7l7.7-6.8l9.6-6l5.7-3.8l10.2-4.9l11.3-4.1l14-3.6l12-0.9h12.9l11,1.6l9.5,2.2l11.3,4.7l5.4,3.7l4.7,4.1l6,8.7
  l2.3,9.6l-1.1,10.9l-6,6.9l-6.6,5.2l-4,2.2l-4.7,1.4l-5.5,1.1l-14-0.3l17,0.6l5.5,3.7l7.4,5.8l3.8,7.9l1.3,10.1l-0.5,12.1l-4.9,9.6
  l-7.1,8.8l-7.8,7l-8.2,3.8l-4.9,1.6l-5.3,1.1h-7.2l-4.6-1.5l-5.8-4.5l-2.9-4.9l-0.8-5.4l0.6-6.1l2.4-7l3.7-6l4.1-4.8L113,97l7.4-5
  l5.5-1.8l3.7-0.6h4.2l4.1,1.8l3.8,3.3l2.4,6l-0.2,6.5l-2.3,6.1l-2.6,3.8"/>
<path class="b2" clip-path="url(#path-bcc)"  d="M215.2,53.5l0.5-1.1l1.2-3.9l1-7l0.5-5.1l-1.2-7.4l-2.1-5.3l-1.9-3.4l-3.4-3.9l-3.3-2.4l-4.5-2.4l-4.6-1.5
  l-5.9-0.7l-5.9,0.4l-7.2,1l-7.4,2.3l-6.2,3.2l-4.9,2.3l-7.1,4.7l-11.5,10.4l-5,6.2l-7.5,8.6l-9,12.5L109,78.4l-8.4,14l-5.1,9l-6.4,8
  l-7.8,9l-6.4,5.8l-7.2,5.2l-9.4,4.6l-6.2,2.8l-8,2.8l-6.5,1.7h-7.2l-6.4-0.5l-5.3-1.2l-4.4-1.3l-3.9-2l-2.8-2.5L5,131.4l-1.9-3
  l-1.6-3.1v-3.6v-3.1l1.1-2.7l1.9-2.3h2.7h5v4.4l-5,1.3"/>
<path class="ill" clip-path="url(#path-bcc)"  d="M198.7,83l-25,47l1.1,5.4l3.3,3.7l3.8,0.7l4.5-1.8l5.7-4.4l8.6-9.3l5.6-7.1l6-9.2l11.1-18l37.3-54.4L207.8,128
  l0.1,7.6l3.3,3.7l3.2,0.5l4.8-2l6.6-5.7l13.5-16.2l5.8-8.6L293,34.6L239,131l2,6.8l3.2,2l2.9-0.3l2.6-0.9l3.4-2.3l6.3-6.1l4-4.4
  l3.9-4.9l10-13.8"/>

<path class="co" clip-path="url(#path-bcc)" d="M478.8,67.6V60l-1.6-5.3l-3.3-7.1l-4.8-7.2l-5.2-6.1l-12.5-10.1l-7.2-4.7l-14.7-7.2l-17.9-6.2l-19.3-3.1h-16.5
  l-17.3,3.4l-15.3,8.8l-7.3,7.3l-3.7,7.1l-1,4.5l0.5,6.5l1,5.4l3.6,6.1l5.8,5.3l9.3,5.2l8.6,3.1l13.8,3l11,0.4l3.3,0.6l10.8-1l18.6-3
  l12.6-3.3l15.3-5.4l11-4.9l9.7-5.4l7.3-5.4l3.6-3.8l2.2-3l0.6-3.3v-3l-1.4-2.3l-3.3-2.6l-6.5-1.5l-10-0.2L440,25.6l-14.5,5.5
  l-16.2,8.7l-22.9,18.7l-13.2,19.4l-8.5,23.4l1.8,17.7l5.4,10.5l7,6.3l8.2,4.4l6,1.5l9.4,0.6l10.8-1.2l13.1-4l10.9-6.6l10.2-8.4
  l7.7-9.3l7.1-13.6l2.3-8.9l0.1-8.3l-1.5-4.7l-2.3-4.6l-3-2.6l-5.5-1.9l-6.5-0.4l-8.1,1.1l-10,5.3l-10.9,9.5l-8.3,11.7l-2.4,7.7
  l0.2,6.5l4.3,3.6l4.7-2l-1.7-4.4l-3.6,1.6"/>
<path class="ooke" clip-path="url(#path-bcc)" d="M511.7,103.9l1.5-4l0.7-5.4l-1.1-5.4l-3.8-2.8h-4.5l-6.8,1.9l-6.3,4l-7.4,5.9l-7.4,8.2l-5.7,8.7l-3,7v7.8
  l2.4,6.3l4,2.9l5.7,0.8l4.7-1.7l6.2-3.9l4.3-4.3l5.9-7.2l6.4-11l2.6-9.4l-7.6,7.9l-2.1,7.3l3.2,4.7l2.8,0.7l4.6-0.7l4.4-2l4.5-3.2
  l4.7-4.3l8.3-5.7l10.4-9.9l9.6-7.2l7.2-3.7h5.6l3.9,1.8l1.8,4v5.9l-2.4,6.5l-29.8-1.6L528,117.7l-1.6,10.7l2,7.7l4.5,2.8l5.3,0.8
  l5.4-2.2l7.6-5.9l5.6-6.1l5.4-8.3l4.3-10.9l-7.8,6.8l0.5,7.1l4.5,2.7l6.9-1.1l7-4.4l8.7-7.5l47.5-75.2l-39.9,68.8l-20.7,35.8
  l22.7-36.5l6.7,4.3l10.4-3.9l12.4-12.5l8.5-3.9l4.7,2.8l-3.2,9.2l-8.2,6.6l-15.5,0l-2.3,2.8l4.6,6.4l-6.1,18.4l1.5,4.3l2.6,2.5h2.6
  l7.3-2.5l20.9-23.5l13.9-1.3l21.1-6.9l11.4-9.7l0.3-7.3l-2.4-2.2l-8.3,0.6L664.4,94l-13.6,12.8l-5.5,12.9l-1.8,9l1.5,5.4l2.7,3.9
  l4.1,1l6.7,0.8l7-2.8l8.3-5.3l22.9-25.6"/>
<path class="cr" clip-path="url(#path-bcc)" d="M896.5,66.7v-7.6l-1.6-5.3l-3.3-7.1l-4.8-7.2l-5.2-6.1l-12.5-10.1l-7.2-4.7l-14.7-7.2l-17.9-6.2L810,2.2h-16.5
  l-17.3,3.4L761,14.4l-7.3,7.3l-3.7,7.1l-1,4.5l0.5,6.5l1,5.4l3.6,6.1l5.8,5.3l9.3,5.2l8.6,3.1l13.8,3l11,0.4l3.3,0.6l10.8-1l18.6-3
  l12.6-3.3l15.3-5.4l11-4.9l9.7-5.4l7.3-5.4l3.6-3.8l2.2-3l0.6-3.3v-3l-1.4-2.3l-3.3-2.6l-6.5-1.5l-10-0.2l-18.7,3.9l-14.5,5.5
  L827,38.9l-22.9,18.7L790.8,77l-8.5,23.4l1.8,17.7l5.4,10.5l7,6.3l8.2,4.4l6,1.5l9.4,0.6l10.8-1.2l13.1-4l10.9-6.6l10.2-8.4l7.7-9.3
  l7.1-13.6l2.3-8.9l0.1-8.3l-1.5-4.7l-2.3-4.6l-3-2.6l-5.5-1.9l-6.5-0.4l-8.1,1.1l-10,5.3l-10.9,9.5l-8.3,11.7l-2.4,7.7l0.2,6.5
  l4.3,3.6l4.7-2l-1.7-4.4l-3.6,1.6"/>

<path class="reative" clip-path="url(#path-bcc)" d="M888,109.3L899.9,93l6.1-5.8l6-0.5l2.5,6.5l-26,48.2l21.7-30.3l32.5-27.7l-20.4,19.1l-3.9,9.9l0.4,5.9l4.1,4.1
  l7.1-1l7.6-5.1l31-8.2l18.2-11.3l0.4-8.2l-4.8-3.2l-17.6,8l-16.8,14.8l-7.5,21.4l5,7.3l5.9,2.7l11.3-2.2l12.3-8l27.3-25.9l19.2-14.8
  l13.2-1.7l-0.7,9.9l-33.8,10.1l-10.4,15.5v11l3.4,5.1l8.6,0.5l10.2-8.8l35-46.5l-24.1,46.8l2.6,7.7l5,1.7l13.7-9.2l29.5-38.4
  l19.2-32l-38.8,72.2l3.7,5.5l5.6,2l10.2-5.6l39.6-49.7l-26.1,47.6l4.6,7.7l11.7-2.8l11.1-12.8l33.3-41.1l-27.1,47.5l3.9,7.6
  l11.5-0.1l8.6-8l28.7-50.2l-18.2,36.4l6.6,7.6l11.8-7.7l44.3-12.8l11.6-16.7l-21.7,3.1l-18,13.6l-9.8,15.7l-0.3,16.3l16.3,5
  l18.7-12.9l16.5-20.4"/>

<path class="dot-dash" clip-path="url(#path-bcc)" d="M1131.8,63.5l-24.3,13.6"/>
<path class="dot-dash" clip-path="url(#path-bcc)" d="M1099.7,86.1h-38.8"/>
<path class="dot-dash" clip-path="url(#path-bcc)" d="M218.3,63.5l-25.6,11.8"/>

</svg>
